<svg xmlns="http://www.w3.org/2000/svg" viewBox="0 0 48 48" width="48px" height="48px">
  <path fill="#EA4335" d="M24 9.5c3.94 0 7.09 1.63 9.33 3.35l7.11-7.11C36.36 2.5 30.63 0 24 0 14.64 0 6.6 5.64 2.69 13.81l8.41 6.54C13.14 13.36 18.14 9.5 24 9.5z"/>
  <path fill="#34A853" d="M46.5 24c0-1.5-.14-2.95-.41-4.35H24v8.24h12.7c-.55 2.95-2.18 5.45-4.64 7.14l7.11 5.52C43.36 36.36 46.5 30.63 46.5 24z"/>
  <path fill="#4A90E2" d="M13.1 28.35c-.55-1.65-.86-3.4-.86-5.35s.31-3.7.86-5.35L4.69 13.81C1.69 18.36 0 23.95 0 30c0 6.05 1.69 11.64 4.69 16.19l8.41-6.54z"/>
  <path fill="#FBBC05" d="M24 46.5c6.63 0 12.36-2.5 16.44-6.56l-7.11-5.52c-2.18 1.5-4.95 2.35-9.33 2.35-5.86 0-10.86-3.86-12.9-9.19l-8.41 6.54C6.6 42.36 14.64 48 24 48z"/>
</svg>
